<?xml version="1.0" encoding="utf-8"?>
<svg version="1.0" xmlns="http://www.w3.org/2000/svg" xmlns:xlink="http://www.w3.org/1999/xlink"
	 width="139.70px" height="197.58px" viewBox="0 0 139.70 197.58" xml:space="preserve">
	<g transform="translate(-168.54,-326.03)">
		<path fill-rule="evenodd" clip-rule="evenodd" d="M252.949,410.976c-1.411,1.113-3.772,0.263-4.262,2.842 c5.186,3.111,12.247,3.01,18.826,5.328c8.958,3.159,19.048,8.319,28.416,3.553c-0.156,1.027-0.748,1.619-1.776,1.775 c0.151,0.793,1.75,0.145,2.486,0.355c-1.679,3.412-6.143,1.002-8.88,1.421c-1.492,0.229-3.985,2.413-6.394,3.196 c-0.739,0.242-1.572-0.213-2.131,0c-1.383,0.53-4.665,2.15-6.749,2.486c-2.417,0.392-4.987,0.284-7.459,0.355 c-0.985,0.081-1.007,1.127-1.776,1.421c-7.973,0.467-17.296,0.111-24.864-1.421c0.973,4.234,5.879,4.54,7.104,8.525 c-0.654,2.309-4.346,1.577-4.973,3.907c-2.666-0.533-3.216,1.049-4.262,2.131c-3.003-1.996-4.199,2.382-6.751,0.355 c-1.03,0.627-1.402,1.911-2.841,2.131c-1.565,0.263-1.454-1.148-2.486-1.421c-1.025,0.869-1.864,1.926-3.552,2.131 c-1.078,0.131-0.736-1.155-1.065-1.775c-1.324,0.216-1.741,1.335-3.197,1.421c-1.049-2.399-5.229,0.509-4.973-3.197 c-1.219,0.156-1.991-0.14-2.841-0.355c0.656-2.313-1.163-2.149-1.776-3.196c5.558-5.101,14.469-6.844,18.115-13.853 c-7.835,2.398-22.23,1.333-28.771-3.553c-1.513,0.211-2.349-0.256-3.552-0.354c-0.514-0.552-0.746-1.386-1.065-2.132 c-4.582,0.678-4.514-3.301-8.17-3.552c0.997-3.568-2.541-2.849-3.197-6.039c11.31,5.937,24.324-0.511,37.651-1.421 c5.153-0.35,10.185,0.379,14.563-0.71c6.06-1.509,10.805-11.89,17.052-6.039C250.953,406.751,251.114,410.341,252.949,410.976z"/>
	</g>
</svg>