<?xml version="1.0" encoding="utf-8"?>
<svg version="1.0" xmlns="http://www.w3.org/2000/svg" xmlns:xlink="http://www.w3.org/1999/xlink"
	 width="139.70px" height="197.58px" viewBox="0 0 139.70 197.58" xml:space="preserve">
	<g transform="translate(-42.65,-330.63)">
		<path fill-rule="evenodd" clip-rule="evenodd" d="M122.941,401.386c2.192-0.251,3.874-2.25,6.394-1.065 c0.159,2.053-0.147,3.639-0.355,5.328c3.718-2.967,7.014-9.24,13.855-8.525c3.272,0.341,5.411,2.24,7.104,4.973 c1.949,0.488,5.039,1.494,4.618,3.197c-6.68-0.691-9.948,4.407-11.011,9.945c-0.464,2.418-3.706,24.55-22.61,24.838 c-14.72,0.226-18.438,15.459-27.476,22.76c-1.487,0.305-0.777-1.589-1.421-2.132c-1.96,0.033-3.798,1.75-5.683,0.711 c2.24-5.22,6.704-8.215,10.656-11.722c4.007-5.11,8.987-9.247,11.722-15.629c-4.965-2.373-7.038-7.645-8.88-13.143 c-5.975-1.61-11.596-1.774-18.115-3.552c-1.698,1.092-3.905,0.658-4.263-1.421c-1.165,0.019-1.356,1.011-2.841,0.71 c-1.378-1.681,0.204-2.29,1.065-3.552c-1.331,0.4-3.585,1.357-4.618,0c-0.102-1.878,1.674-1.878,2.131-3.197 c-1.148-0.154-3.071,0.466-3.197-0.71c2.832-3.645,9.23-6.235,15.629-8.17c7.372-2.23,15.522-3.431,23.443-4.262 c4.537-0.476,9.872-1.059,12.432,1.421C122.122,399.129,122.344,400.445,122.941,401.386z"/>
	</g>
</svg>