<?xml version="1.0" encoding="utf-8"?>
<svg version="1.0" xmlns="http://www.w3.org/2000/svg" xmlns:xlink="http://www.w3.org/1999/xlink"
	 width="139.70px" height="197.58px" viewBox="0 0 139.70 197.58" xml:space="preserve">
	<g transform="translate(-285.58,-437.20)">
		<path fill-rule="evenodd" clip-rule="evenodd" d="M359.154,493.542c0.469,0.125,0.56,0.625,1.066,0.71 c2.983,7.731,6.648,15.802,11.366,22.733c3.068,4.504,6.234,7.492,4.265,14.918c4.532-2.877,12.022-5.437,16.694-0.71 c1.082,1.096,1.406,2.924,2.486,3.907c1.672,1.522,4.329,1.797,5.328,3.552c-4.007,0.727-8.586,1.328-11.366,4.263 c-2.915,3.073-3.455,7.978-5.684,11.366c-4.921,7.48-15.667,14.414-29.129,13.853c-3.308-0.137-8.21-2.081-13.853-1.421 c-3.846,0.452-9.633,3.053-14.208,4.973c-4.012,1.687-12.219,6.761-15.629,3.553c0.331-1.682,1.735-2.29,2.486-3.553 c0.019-1.084-1.279-0.85-1.065-2.131c1.229-2.164,1.065-3.575,1.421-6.394c11.049-3.396,26.774-2.114,34.454-8.88 c-1.524-0.725-4.185-0.315-4.263-2.486c-2.048,1.099-4.101-1.21-3.907-2.486c-1.293,0.111-2.311-0.057-3.196-0.355 c-0.332-0.853-1.428-0.94-1.065-2.486c-1.639-0.611-3.576-0.921-3.197-3.552c-3.839-0.026-2.365-3.194-5.328-3.907 c-0.426-0.979-0.771-1.485-0.354-2.486c-3.103-0.685-3.166-4.412-5.684-5.684c-0.294-1.004,0.502-0.921,0.355-1.776 c-3.647-2.822-3.943-6.954-6.749-10.301c0.866-0.791,2.536-0.779,4.263-0.71c-1.808-1.864-4.912-2.43-5.328-5.684 c2.103-0.208,3.389,0.4,4.617,1.065c-0.083-1.619-4.565-3.663-3.552-6.394c2.855,0.46,4.21,2.42,6.394,3.553 c-0.301-2.101-4.788-4.879-3.552-8.525c2.571,1.215,3.76,3.817,6.038,5.328c-0.926-2.313-3.387-4.845-2.486-7.814 c2.716,1.546,3.919,4.466,5.684,6.749c5.262,6.801,12.318,12.029,21.312,15.629c1.679-0.495-1.047-4.369,1.776-4.263 c-0.332-1.089-1.106-1.735-1.421-2.842c0.492-0.813,0.389-2.216,1.775-2.131c-0.449-1.324-1.453-2.096-1.065-4.263 c0.571-0.615,1.075-1.293,2.486-1.065c-0.753-1.439-2.174-3.725-0.71-5.328c2.719-0.229,3.417,1.556,4.973,2.486 c0.329-1.686-2.626-4.88-1.065-7.814c2.714,0.128,2.825,2.858,4.617,3.907C358.496,499.023,357.776,494.993,359.154,493.542z"/>
	</g>
</svg>