<?xml version="1.0" encoding="utf-8"?>
<svg version="1.0" xmlns="http://www.w3.org/2000/svg" xmlns:xlink="http://www.w3.org/1999/xlink"
	 width="139.70px" height="197.58px" viewBox="0 0 139.70 197.58" xml:space="preserve">
	<g transform="translate(-410.43,-568.65)">
		<path fill-rule="evenodd" clip-rule="evenodd" d="M465.633,677.842c-8.572-1.343-17.377-9.631-19.807-20.739 c-0.914-4.182-0.362-8.996-4.263-11.366c-2.216-0.746-4.719-0.111-7.104,0c0.474-2.91,3.731-3.358,5.328-5.328 c0.805-0.995,0.767-2.621,1.775-3.552c2.134-1.968,6.018-2.383,8.525-2.132c6.588,0.658,10.213,8.596,15.629,9.235 c4.321,0.509,9.24-2.681,13.855-3.196c11.302-1.265,24.308,2.739,36.23,3.552c3.542,0.241,6.786-0.419,10.301,0.355 c-0.003,1.655-1.665,1.65-2.842,2.131c-0.142,1.323,2.219,0.149,2.486,1.065c-0.234,2.607-4.559,1.125-4.263,4.263 c-1.231,0.189-1.892,0.949-3.196,1.065c0.073,1.554-2.297,3.329-4.618,2.486c-0.67,1.773-2.775,3.349-4.973,2.486 c-0.798,0.149-0.01,1.885-0.71,2.132c-1.082,0.108-2.127,1.323-3.197,0.354c-0.696,0.846-1.112,1.966-2.131,2.486 c-3.595-1.101-3.512,3.352-6.394,1.776c-0.983-0.151-0.334,1.324-1.065,1.421c-2.014,0.357-4.379,0.359-4.974,2.131 c-4.267-0.396-5.766,1.687-9.59,1.066c3.116,10.104,11.072,14.901,18.115,21.312c2.171,1.979,5.155,3.889,5.683,7.104 c-1.511,0.158-2.358,1.366-3.907,1.421c-0.786,0.028-1.466-0.782-2.131-0.711c-0.651,0.073-1.122,1.035-1.776,1.065 c-0.788,0.041-1.408-0.771-2.131-0.71c-1.624,0.14-3.04,1.395-4.973,0.71C481.432,696.873,485.638,680.975,465.633,677.842z"/>
	</g>
</svg>