<?xml version="1.0" encoding="utf-8"?>
<svg version="1.0" xmlns="http://www.w3.org/2000/svg" xmlns:xlink="http://www.w3.org/1999/xlink"
	 width="139.70px" height="197.58px" viewBox="0 0 139.70 197.58" xml:space="preserve">
	<g transform="translate(-291.08,-327.05)">
		<path fill-rule="evenodd" clip-rule="evenodd" d="M305.52,387.533c6.811,8.818,17.565,13.692,30.191,16.695 c0.98,0.151,0.334-1.324,1.066-1.421c3.8,1.314,7.314,2.822,11.366,4.262c3.67,1.302,8.328,3.803,12.077,3.197 c5.995-0.971,5.955-14.58,14.92-10.301c0.417,0.199,0.979,0.651,1.421,1.776c1.457-0.035,2.911-0.071,3.907,0.355 c-2.685,2.051-4.551,4.923-4.973,9.235c3.147,2.934,11.942-0.819,18.115-1.421c10.583-1.033,19.318-0.242,24.509-5.328 c1.495-1.466,1.604-3.637,3.553-3.907c-1.017,5.375-5.501,7.286-9.235,9.946c-0.106,0.935,0.492,1.165,1.421,1.065 c-0.485,2.001-2.518,2.456-4.263,3.197c0.031,1.326,0.397,1.011,0,2.131c-3.521,1.215-3.824,5.647-8.17,6.038 c-0.116,3.673-5.179,2.399-6.038,5.328c-0.711,0-1.421,0-2.131,0c-5.175,5.267-13.794,7.817-21.67,8.525 c-1.687,0.243-2.292,0.547-4.263,1.775c-1.097,0.44-1.904,1.173-2.486,2.132c1.506,5.6,5.063,9.147,4.973,16.339 c-0.971,0-2.278,1.478-3.196,0.355c-1.108,1.726-1.999,3.945-4.974,2.842c-0.544,1.395-2.768,3.113-4.262,1.42 c-0.691,0.729-1.108,1.733-2.486,1.776c-1-0.066-1.514-0.618-1.421-1.776c-1.599,0.06-1.303,2.014-2.842,2.132 c-1.314,0.251-0.611-1.519-1.421-1.776c-1.148,0.036-0.758,1.61-2.486,1.065c-1.137-0.047-1.563-0.805-1.421-2.131 c-3.038,2.112-3.151-2.365-6.038-2.486c-0.214-0.851-0.51-1.62-0.355-2.842c-0.98-0.559-2.43-0.648-2.842-1.776 c4.895-7.419,14.748-9.879,17.76-19.181c-4.127,0.329-6.962,1.684-10.301-0.71c-1.684,0.466-3.419,1.099-3.907-1.065 c-2.692,0.391-5.626-1.27-7.104-3.197c-1.757,0.5-4.108,0.303-3.907-2.131c-1.572-0.168-1.767,0.487-2.842,0 c-0.314-0.633-0.992-0.902-0.71-2.132c-4.163,0.729-3.619-3.249-7.104-3.196c-0.038-0.883-0.665-1.099,0-1.776 c-1.539-0.355-2.621-1.167-3.907-1.776c0.559-3.045-2.318-2.654-3.552-3.907c-0.32-1.04-0.32-1.092,0-2.131 c-1.58-1.025-3.635-1.575-4.263-3.552c-0.301-1.485,0.962-1.407,1.421-2.131c-1.951-1.364-4.845-1.786-5.328-4.618 c0.814-0.557,3.448-0.557,4.263,0c-0.625-1.984-5.745-2.541-6.394-5.683c2.458-0.717,4.773,1.236,7.104,1.776 c-0.952-2.247-5.515-3.955-6.038-7.814c3.566,1.288,5.563,4.146,9.235,5.328C308.834,393.216,305.924,391.627,305.52,387.533z"/>
	</g>
</svg>