<?xml version="1.0" encoding="utf-8"?>
<svg version="1.0" xmlns="http://www.w3.org/2000/svg" xmlns:xlink="http://www.w3.org/1999/xlink"
	 width="139.70px" height="197.58px" viewBox="0 0 139.70 197.58" xml:space="preserve">
	<g transform="translate(-426.23,-331.39)">
		<path fill-rule="evenodd" clip-rule="evenodd" d="M518.29,389.664c2.481,0.315,5.262-3.926,7.814-3.552 c0.095,4.002-3.178,4.637-4.618,7.104c1.374-0.402,3.026-2.02,4.618-1.065c-0.422,2.063-1.8,3.171-3.197,4.263 c0.365,0.819,1.222,1.144,1.065,2.486c-0.901,0.755-1.094,2.224-2.486,2.486c-0.092,1.04,0.803,1.092,0.711,2.131 c-2.79,3.424-0.931,7.146-4.973,9.235c-0.093,1.04,0.803,1.092,0.71,2.131c-0.952,1.061-1.722,2.304-3.196,2.842 c-0.038,1.101,1.117,1.013,0.71,2.486c-0.876,0.663-1.386,1.695-2.842,1.776c-0.265,1.094,0.976,0.682,0.711,1.776 c-1.021,1.466-2.842,2.131-2.842,4.617c-6.294,5.785-11.113,13.043-20.247,15.984c6.157,13.143,20.689,17.909,31.613,26.285 c-2.112,4.321-9.777,1.295-12.432,4.617c-9.243-3.859-11.088-18.238-24.51-15.629c-9.822,1.456-18.433-5.046-22.38-10.301 s-6.798-13.344-13.143-17.76c-2.531-0.045-5.024-0.053-7.104,0.354c0.158-2.801,2.862-3.057,4.263-4.617 c0.637-4.454,4.016-6.169,7.814-7.459c-1.148-1.575-3.018-2.429-3.907-4.262c0.03-0.563-0.171-1.354,0.354-1.421 c-3.052-2.472-4.554-13.043-0.71-15.984c1.243,0.296,1.446,1.634,1.421,3.197c1.563-0.924,1.087-3.888,3.196-4.263 c2.077,0.064,1.492,3.846,1.065,5.328c1.693-0.547,2.551-3.052,4.618-2.131c0.722,1.163,0.414,3.819-0.355,4.617 c1.222-0.639,3.071-1.444,4.618-0.71c0.535,0.575,0.535,2.621,0,3.197c1.222-0.157,1.991,0.14,2.841,0.355 c0.109,1.075,1.102,1.269,0.711,2.842c3.147,2.302,4.682,6.211,7.104,9.235c5.085-4.388,8.509-10.436,13.146-15.273 c0.573-0.1,0.61,0.336,1.065,0.355c6.782-6.853,15.368-13.576,19.892-23.088c1.042-2.193,1.15-4.921,3.196-6.749 c0.109,4.608-0.291,8.708-2.131,11.367c3.232-1.625,4.868-7.917,8.169-10.656c0.42,5.392-1.556,8.39-3.552,11.367 c3.024-0.315,5.511-6.064,8.525-6.394C523.199,385.101,520.642,387.279,518.29,389.664z"/>
	</g>
</svg>