<?xml version="1.0" encoding="utf-8"?>
<svg version="1.0" xmlns="http://www.w3.org/2000/svg" xmlns:xlink="http://www.w3.org/1999/xlink"
	 width="139.70px" height="197.58px" viewBox="0 0 139.70 197.58" xml:space="preserve">
	<g transform="translate(-49.43,-561.84)">
		<path fill-rule="evenodd" clip-rule="evenodd" d="M115.481,640.408c0.455-1.085,0.618-2.461,1.776-2.842 c0.194-1.258-1.257-0.874-1.065-2.131c0.53-0.893,1.499-1.346,2.486-1.776c-0.308-0.874-1.572-0.796-1.421-2.131 c0.49-1.672,2.925-1.684,4.263-0.711c-0.434-1.516-2.141-2.654-1.421-4.262c3.798-0.271,6.862,4.348,10.658,7.459 c4.987,4.089,13.168,7.187,10.301,15.629c6.45-3.819,16.372-1.198,17.049,6.038c1.487,1.473,3.825,2.096,4.263,4.618 c-13.415-2.946-13.273,10.251-19.536,16.694c-4.464,4.592-13.24,11.328-26.103,7.869c-12.856-3.458-17.386,10.433-27.536,13.088 c-3.256,1.21-5.78-0.507-8.88-2.842c-1.525-1.452-2.264-3.103-3.197-5.141c-0.933-2.039,0.538-4.648,3.197-5.516 c10.912-3.533,25.312-3.578,30.903-12.432c-0.23-1.308-2.112-0.967-3.197-1.421c-1.828-2.672-3.391-5.605-6.038-7.46 c0.279-3.476-3.481-2.912-3.197-6.394c-1.3-0.803-3.825-1.97-2.842-3.907c-4.892-2.804-6.889-8.503-11.722-11.366 c-0.256-1.085,0.365-1.295,0.355-2.131c-1.353-1.371-4.054-1.393-4.618-3.553c-0.247-1.43,1.767-0.601,2.131-1.42 c-1.769-1.31-4.693-1.464-4.973-4.263c1.068-0.72,3.079,0.073,4.262,0.355c0.133-1.561-4.187-1.727-3.552-4.974 c2.941,0.374,4.871,1.76,7.104,2.842c-0.1-1.681-3.692-2.934-3.907-5.683c0.287-0.247,0.973-0.555,1.065,0 C92.469,629.321,103.774,635.068,115.481,640.408z"/>
	</g>
</svg>