<?xml version="1.0" encoding="utf-8"?>
<svg version="1.0" xmlns="http://www.w3.org/2000/svg" xmlns:xlink="http://www.w3.org/1999/xlink"
	 width="139.70px" height="197.58px" viewBox="0 0 139.70 197.58" xml:space="preserve">
	<g transform="translate(-164.45,-203.38)">
		<path fill-rule="evenodd" clip-rule="evenodd" d="M243.733,329.774c-10.042,0.278-8.785,12.169-13.519,17.618 c-5.373,2.619-9.481,1.345-14.563,1.065c-0.045-0.874-0.055-1.709,0.355-2.131c-1.928,0.322-2.323,2.178-4.973,1.776 c-0.4-0.426-1.014-0.642-0.71-1.776c-1.317,0.725-2.079-0.275-3.197-0.71c0.656-2.759-3.313-3.154-1.066-5.328 c-0.023-1.04-1.352-0.777-1.065-2.131c2.371-3.376,7.284-4.568,11.367-6.394c6.803-3.039,14.407-5.271,17.049-12.432 c-0.376-0.806-2.233-0.135-3.197-0.355c-5.387-3.018-12.013-4.799-14.563-10.656c-1.966,0.071-3.403-0.386-3.197-2.486 c-3.462-0.444-2.967-4.845-6.394-5.328c-0.113-0.824,0.057-1.364,0.355-1.776c-0.675-0.629-2.273-0.331-2.842-1.065 c-0.173-0.809-0.703-1.815,0-2.487c-3.419-2.855-4.826-7.724-8.169-10.656c-0.258-1.087,0.613-1.045,0.355-2.131 c-1.082-1.167-2.583-1.917-3.197-3.552c0.185-0.882,0.867-1.266,1.421-1.776c-1.39-1.45-3.559-2.124-4.262-4.262 c0.76-0.779,1.724-1.354,3.552-1.066c-1.156-2.278-4.954-1.914-4.973-5.329c1.643-0.903,4.108,0.046,5.328,0.71 c-1.134-2.18-3.841-2.788-4.263-5.683c3.616-0.965,5.903,2.354,8.88,3.197c-0.675-2.235-6.162-4.403-5.328-8.169 c4,0.974,6.285,3.662,9.235,5.683c-0.319-2.17-4.014-4.035-3.907-7.814c6.143,3.103,10.94,8.359,16.694,12.432 c4.397,3.113,8.731,6.121,13.498,8.881c1.762,1.019,3.445,1.187,5.328,2.131c7.251,3.634,9.318,12.837,16.342,16.339 c5.027-4.136,8.584-7.899,11.366-13.853c0.767-0.298,1.21-0.92,2.486-0.71c-0.954-2.297,1.288-4.538,3.552-3.552 c-0.265-1.324-0.753-3.14,0.355-3.907c1.691-0.153,2.655,0.421,3.552,1.065c-0.389-1.497-0.632-3.603,0.355-4.619 c7.313,2.775,4.852,16.842-0.71,19.537c3.952,2.44,5.852,6.935,9.235,9.946c-12.326-1.288-11.175,10.121-15.984,17.76 C261.277,320.605,255.189,329.457,243.733,329.774z"/>
	</g>
</svg>