<?xml version="1.0" encoding="utf-8"?>
<svg version="1.0" xmlns="http://www.w3.org/2000/svg" xmlns:xlink="http://www.w3.org/1999/xlink"
	 width="139.70px" height="197.58px" viewBox="0 0 139.70 197.58" xml:space="preserve">
	<g transform="translate(-48.06,-439.00)">
		<path fill-rule="evenodd" clip-rule="evenodd" d="M152.78,499.58c-4.011,1.113-9.685,1.79-8.88,8.524 c0.429,3.578,2.152,6.875,2.486,10.302c1.57,16.109-6.417,30.573-17.762,33.744c-11.345,3.17-10.351,0.127-21.312,9.59 c-10.962,9.463-10.157,18.876-17.05,25.222c0.301-5.396-7.232-0.097-6.394,0c2.977-8.986,9.817-17.175,14.208-25.932 c-1.338,0.128-2.043,2.226-3.552,1.065c2.117-10.465,6.624-24.355,13.498-36.941c3.147-5.761,6.972-10.393,9.946-15.629 c4.921-8.659,4.966-20.912,19.539-19.181c4,0.474,5.868,2.147,7.459,5.328C147.66,496.883,151.366,497.084,152.78,499.58z"/>
	</g>
</svg>