<?xml version="1.0" encoding="utf-8"?>
<svg version="1.0" xmlns="http://www.w3.org/2000/svg" xmlns:xlink="http://www.w3.org/1999/xlink"
	 width="139.70px" height="197.58px" viewBox="0 0 139.70 197.58" xml:space="preserve">
	<g transform="translate(-27.11,-85.30)">
		<path fill-rule="evenodd" clip-rule="evenodd" d="M107.667,149.898c7.914,4.336,11.35,15.753,12.432,26.64 c0.869,8.705-1.04,17.454-1.776,26.996c-1.144,14.874,4.532,27.984,4.973,40.139c-8.622,1.91-18.809-0.547-24.864-3.552 c0.453-5.819,1.809-10.832,2.842-16.339c1.252-6.667,3.495-16.613-0.71-21.313c-5.259-5.878-13.86-7.715-19.181-12.077 c-6.6-5.412-10.776-16.025-8.169-26.64c1.191-4.848,8.027-10.643,6.749-15.985c-0.862-3.603-6.432-2.968-8.17-6.394 c2.65-0.784,4.457-2.412,7.104-3.197c2.084-8.602,6.83-15.561,16.339-15.274C108.039,123.288,115.822,138.4,107.667,149.898z"/>
	</g>
</svg>