<?xml version="1.0" encoding="utf-8"?>
<svg version="1.0" xmlns="http://www.w3.org/2000/svg" xmlns:xlink="http://www.w3.org/1999/xlink"
	 width="139.70px" height="197.58px" viewBox="0 0 139.70 197.58" xml:space="preserve">
	<g transform="translate(-166.75,-568.24)">
		<path fill-rule="evenodd" clip-rule="evenodd" d="M264.325,624.711c-3.341,1.802-8.603,1.238-8.392,8.338 c0.083,2.824,2.103,5.562,2.972,8.742c4.376,15.993-4.717,33.851-14.338,38.554c-9.619,4.703-11.743,3.701-13.474,9.775 c-3.474,6.884-0.159,30.424-11.897,23.41c-2.752,1.046-4.542,3.199-8.39,2.998c-1.949-5.473,1.589-10.681,3.528-15.428 c2.042-4.994,4.177-10.1,5.655-15.288c-1.359,0.861-1.203,3.46-3.095,3.708c-2.792-14.063-0.166-32.333,5.479-44.487 c2.377-5.12,7.426-9.16,9.458-13.604c2.794-6.109,3.528-11.807,8.468-14.738c5.38-3.197,14.734-1.748,17.151,4.354 C260.146,621.911,262.533,623.053,264.325,624.711z"/>
	</g>
</svg>